<svg width="48" height="48" viewBox="0 0 48 48" fill="none" xmlns="http://www.w3.org/2000/svg">
  <rect width="48" height="48" rx="12" fill="url(#gradient1)"/>
  <path d="M24 8C20.134 8 17 11.134 17 15C17 18.866 20.134 22 24 22C27.866 22 31 18.866 31 15C31 11.134 27.866 8 24 8Z" fill="white" fill-opacity="0.9"/>
  <path d="M14 26C14 23.791 15.791 22 18 22H30C32.209 22 34 23.791 34 26V36C34 38.209 32.209 40 30 40H18C15.791 40 14 38.209 14 36V26Z" fill="white" fill-opacity="0.9"/>
  <path d="M20 28H28V30H20V28Z" fill="#4F46E5"/>
  <path d="M20 32H26V34H20V32Z" fill="#4F46E5"/>
  <circle cx="36" cy="16" r="6" fill="#10B981"/>
  <path d="M33 16L35 18L39 14" stroke="white" stroke-width="1.5" stroke-linecap="round" stroke-linejoin="round"/>
  <defs>
    <linearGradient id="gradient1" x1="0" y1="0" x2="48" y2="48" gradientUnits="userSpaceOnUse">
      <stop stop-color="#4F46E5"/>
      <stop offset="1" stop-color="#7C3AED"/>
    </linearGradient>
  </defs>
</svg>
